<svg width="12" height="17" viewBox="0 0 12 17" fill="none" xmlns="http://www.w3.org/2000/svg">
<path d="M1.66667 1.66667V15H10V1.66667H1.66667ZM0.833333 0H10.8333C11.2936 0 11.6667 0.3731 11.6667 0.833333V15.8333C11.6667 16.2936 11.2936 16.6667 10.8333 16.6667H0.833333C0.3731 16.6667 0 16.2936 0 15.8333V0.833333C0 0.3731 0.3731 0 0.833333 0ZM5.83333 12.5C6.29358 12.5 6.66667 12.8731 6.66667 13.3333C6.66667 13.7936 6.29358 14.1667 5.83333 14.1667C5.37308 14.1667 5 13.7936 5 13.3333C5 12.8731 5.37308 12.5 5.83333 12.5Z" fill="#1F2937"/>
</svg>
