<svg width="17" height="17" viewBox="0 0 17 17" fill="none" xmlns="http://www.w3.org/2000/svg">
<path d="M8.33333 0C12.9357 0 16.6667 3.73096 16.6667 8.33333C16.6667 12.9357 12.9357 16.6667 8.33333 16.6667C3.73096 16.6667 0 12.9357 0 8.33333C0 3.73096 3.73096 0 8.33333 0ZM8.33333 12.5C7.79583 12.5 7.28217 12.3982 6.81042 12.2129L4.9467 14.0769C5.93922 14.6634 7.097 15 8.33333 15C9.56967 15 10.7274 14.6634 11.72 14.0769L9.85625 12.2129C9.3845 12.3982 8.87083 12.5 8.33333 12.5ZM1.66667 8.33333C1.66667 9.56967 2.00322 10.7274 2.58971 11.72L4.45376 9.85625C4.26844 9.3845 4.16667 8.87083 4.16667 8.33333C4.16667 7.79583 4.26844 7.28217 4.45376 6.81042L2.58971 4.9467C2.00322 5.93922 1.66667 7.097 1.66667 8.33333ZM14.0769 4.9467L12.2129 6.81042C12.3982 7.28217 12.5 7.79583 12.5 8.33333C12.5 8.87083 12.3982 9.3845 12.2129 9.85625L14.0769 11.72C14.6634 10.7274 15 9.56967 15 8.33333C15 7.097 14.6634 5.93922 14.0769 4.9467ZM8.33333 5.83333C6.95258 5.83333 5.83333 6.95258 5.83333 8.33333C5.83333 9.71408 6.95258 10.8333 8.33333 10.8333C9.71408 10.8333 10.8333 9.71408 10.8333 8.33333C10.8333 6.95258 9.71408 5.83333 8.33333 5.83333ZM8.33333 1.66667C7.097 1.66667 5.93922 2.00322 4.9467 2.58971L6.81042 4.45376C7.28217 4.26844 7.79583 4.16667 8.33333 4.16667C8.87083 4.16667 9.3845 4.26844 9.85625 4.45376L11.72 2.58971C10.7274 2.00322 9.56967 1.66667 8.33333 1.66667Z" fill="#6B7280"/>
</svg>
