<svg width="1221" height="427" viewBox="0 0 1221 427" fill="none" xmlns="http://www.w3.org/2000/svg">
<path d="M908.954 232.827C908.954 253.251 912.853 271.077 920.651 286.301C928.82 301.154 940.518 312.666 955.743 320.835C970.967 328.633 989.719 332.532 1012 332.532C1034.28 332.532 1053.03 328.633 1068.26 320.835C1083.48 312.666 1094.99 301.154 1102.79 286.301C1110.96 271.077 1115.05 253.251 1115.05 232.827V0H1220.32V237.842C1220.32 275.718 1211.59 308.768 1194.14 336.989C1176.69 365.21 1152.36 387.305 1121.17 403.272C1089.98 418.868 1053.59 426.667 1012 426.667C970.41 426.667 934.019 418.868 902.827 403.272C871.635 387.305 847.312 365.21 829.859 336.989C812.406 308.768 803.68 275.718 803.68 237.842V0H908.954V232.827Z" fill="#277079"/>
<path d="M309.726 89.6778H51.2758V173.785H299.699V263.463H51.2758V417.754H-54V0H309.726V89.6778Z" fill="#277079"/>
<path d="M737.335 86.3353H471.375L484.849 169.887H722.295V247.867H484.849L471.375 331.418H740.119V417.754H358.016L390.321 208.877L358.016 0H737.335V86.3353Z" fill="#277079"/>
</svg>
