<svg width="12" height="12" viewBox="0 0 12 12" fill="none" xmlns="http://www.w3.org/2000/svg">
<path opacity="0.7" d="M5.83333 11.6667C2.61167 11.6667 0 9.05497 0 5.83333C0 2.61167 2.61167 0 5.83333 0C9.05497 0 11.6667 2.61167 11.6667 5.83333C11.6667 9.05497 9.05497 11.6667 5.83333 11.6667ZM5.83333 10.5C8.41068 10.5 10.5 8.41068 10.5 5.83333C10.5 3.256 8.41068 1.16667 5.83333 1.16667C3.256 1.16667 1.16667 3.256 1.16667 5.83333C1.16667 8.41068 3.256 10.5 5.83333 10.5ZM6.41667 5.83333H8.75V7H5.25V2.91667H6.41667V5.83333Z" fill="#1F2937"/>
</svg>
