<svg width="40" height="40" viewBox="0 0 40 40" fill="none" xmlns="http://www.w3.org/2000/svg">
<rect width="40" height="40" rx="6" fill="#FF6500" fill-opacity="0.1"/>
<path d="M28.7134 16.1281L28.4668 16.6938C28.2864 17.1079 27.7136 17.1079 27.5331 16.6938L27.2866 16.1281C26.8471 15.1195 26.0555 14.3164 25.0677 13.8771L24.308 13.5392C23.8973 13.3565 23.8973 12.7588 24.308 12.5761L25.0252 12.2571C26.0384 11.8065 26.8442 10.9737 27.2761 9.93083L27.5293 9.31953C27.7058 8.89349 28.2942 8.89349 28.4706 9.31953L28.7238 9.93083C29.1558 10.9737 29.9616 11.8065 30.9748 12.2571L31.6919 12.5761C32.1027 12.7588 32.1027 13.3565 31.6919 13.5392L30.9323 13.8771C29.9445 14.3164 29.1529 15.1195 28.7134 16.1281ZM10 12C10 11.4477 10.4477 11 11 11H22V13H12V27H28V19H30V28C30 28.5523 29.5523 29 29 29H11C10.4477 29 10 28.5523 10 28V12ZM15 21H17V25H15V21ZM19 15H21V25H19V15ZM23 18H25V25H23V18Z" fill="#FF6500"/>
</svg>
