<svg width="40" height="40" viewBox="0 0 40 40" fill="none" xmlns="http://www.w3.org/2000/svg">
<rect width="40" height="40" rx="6" fill="#FF6500" fill-opacity="0.1"/>
<path d="M17.4998 8.5C18.8804 8.50021 19.9998 9.61942 19.9998 11V14.8027C20.555 14.6054 21.1777 14.5676 21.8026 14.7412L26.8026 16.1299C28.1008 16.4907 28.9998 17.673 28.9998 19.0205V23.501C28.9994 27.6427 25.6415 31.0008 21.4998 31.001C19.0416 31.001 17.1713 30.3082 15.6834 29.002C14.2336 27.7289 13.2249 25.938 12.3338 23.9014C11.404 21.7762 10.8894 20.4806 10.6092 19.7236C10.2528 18.7598 10.7463 17.413 12.0858 17.3193L12.3338 17.3086C13.3815 17.2941 14.2768 17.6602 14.9998 18.2598V11C14.9998 9.61929 16.1191 8.5 17.4998 8.5ZM17.4998 10.5C17.2237 10.5 16.9998 10.7239 16.9998 11V22H16.0047L15.0194 22.1973C14.6715 20.4577 13.6848 19.4506 12.5975 19.3252C12.8815 20.0703 13.3622 21.2629 14.1658 23.0996C15.0245 25.0621 15.8914 26.5224 17.0037 27.499C18.0782 28.4421 19.4587 29.001 21.4998 29.001C24.537 29.0008 26.9994 26.538 26.9998 23.501V19.0205C26.9998 18.5714 26.7001 18.177 26.2674 18.0566L21.2674 16.668C20.6304 16.491 20.0001 16.9698 19.9998 17.6309V19H17.9998V11C17.9998 10.724 17.7758 10.5002 17.4998 10.5Z" fill="#FF6500"/>
</svg>
