<svg width="173" height="32" viewBox="0 0 173 32" fill="none" xmlns="http://www.w3.org/2000/svg">
<path d="M13.3423 31.5002H12.3197C9.66359 31.5002 8.0655 31.4997 6.84473 31.2729L13.9097 21.9277L13.3423 31.5002Z" fill="#FF1616"/>
<path d="M25.0276 31.3012C23.8278 31.4991 22.2558 31.5001 19.7176 31.5001H18.5087L17.9385 21.9248L25.0276 31.3012Z" fill="#FF1616"/>
<path d="M31.7738 24.8364C31.7222 25.0816 31.6615 25.3122 31.5875 25.5339C31.1027 26.9852 30.2518 28.2616 29.1429 29.2584L21.1763 20.335L31.7738 24.8364Z" fill="#FF1616"/>
<path d="M2.79165 29.1636C1.73325 28.1811 0.919045 26.9402 0.449454 25.5343C0.368137 25.2908 0.300621 25.037 0.246094 24.7645L10.6715 20.3369L2.79165 29.1636Z" fill="#FF1616"/>
<path d="M32.0371 19.1946C32.0371 20.0942 32.0345 20.8723 32.0257 21.5553L22.5645 17.9048H32.0371V19.1946Z" fill="#FF1616"/>
<path d="M9.2877 17.9048L0.00853258 21.4844C0.000565538 20.8185 0 20.0632 0 19.1946V17.9048H9.2877Z" fill="#FF1616"/>
<path d="M19.7174 -0.5C23.0512 -0.5 24.7182 -0.499557 26.0642 -0.0511361C28.6715 0.817704 30.7178 2.86166 31.5876 5.46591C32.0366 6.81038 32.037 8.47544 32.037 11.8054V15.5128H22.0326L29.2483 12.4489L27.1081 11.0298L20.1071 13.7301L23.3935 9.3864L21.03 8.74008L17.4008 12.8026L17.1306 8.22728H14.723L14.4485 12.8026L10.8222 8.74008L8.4601 9.3864L11.7423 13.7287L4.74554 11.0298L2.60528 12.4489L9.81959 15.5128H0V11.8054C0 8.47544 0.000443429 6.81038 0.449383 5.46591C1.31923 2.86166 3.36555 0.817704 5.97282 -0.0511361C7.31884 -0.499557 8.98583 -0.5 12.3196 -0.5H19.7174Z" fill="#FF1616"/>
<path d="M74.7052 24.655C75.458 26.0651 76.9117 26.9526 78.785 26.9526C80.6582 26.9526 82.1118 26.0651 82.8647 24.655H85.6824C84.7509 27.4725 82.1623 29.3557 78.785 29.3557C75.4078 29.3557 72.8189 27.4725 71.8871 24.655H74.7052ZM115.736 9.70813C120.029 9.70813 123.037 12.6576 123.037 16.8909C123.037 21.3699 119.701 23.9104 116.174 23.9104C113.986 23.9103 112.127 22.9269 111.143 21.1791V29.3175H108.545V16.9183C108.545 12.5211 111.553 9.70813 115.736 9.70813ZM115.763 12.1112C113.002 12.1112 111.143 14.0779 111.143 16.8088C111.143 19.5399 113.002 21.5065 115.763 21.5065C118.552 21.5065 120.412 19.54 120.412 16.8088C120.412 14.0778 118.552 12.1112 115.763 12.1112ZM63.3202 9.70813C67.5856 9.70813 70.5933 12.7123 70.5934 16.8088C70.5934 20.9055 67.5857 23.9104 63.3202 23.9104C59.0547 23.9104 56.0469 20.9055 56.0469 16.8088C56.0471 12.7123 59.0548 9.70813 63.3202 9.70813ZM63.3202 12.1112C60.5313 12.1112 58.6719 14.0778 58.6719 16.8088C58.6719 19.54 60.5312 21.5065 63.3202 21.5065C66.1092 21.5065 67.9685 19.54 67.9685 16.8088C67.9685 14.0778 66.1091 12.1112 63.3202 12.1112ZM79.0728 9.71437H86.1381V12.0347H84.3152C85.4189 13.2708 86.0572 14.9235 86.0572 16.8088C86.0572 20.9055 83.0497 23.9104 78.7842 23.9104C74.5187 23.9104 71.511 20.9055 71.511 16.8088C71.511 12.7123 74.5188 9.70813 78.7842 9.70813C78.8811 9.70813 78.9773 9.71125 79.0728 9.71437ZM78.7842 12.1112C75.9953 12.1112 74.1359 14.0778 74.1358 16.8088C74.1358 19.54 75.9952 21.5065 78.7842 21.5065C81.5728 21.5065 83.4326 19.54 83.4326 16.8088C83.4326 14.0778 81.5728 12.1112 78.7842 12.1112ZM94.2491 9.70813C98.514 9.70813 101.522 12.7123 101.522 16.8088C101.522 20.9055 98.514 23.9104 94.2491 23.9104C89.9833 23.9104 86.9759 20.9055 86.9759 16.8088C86.9759 12.7123 89.9833 9.70813 94.2491 9.70813ZM94.2491 12.1112C91.4603 12.1112 89.6005 14.0778 89.6005 16.8088C89.6005 19.54 91.4603 21.5065 94.2491 21.5065C97.0379 21.5065 98.8976 19.54 98.8976 16.8088C98.8968 14.0778 97.0379 12.1112 94.2491 12.1112ZM129.603 9.70813C132.83 9.70821 134.825 11.5383 134.88 13.8596H132.309C132.227 12.8219 131.271 12.0567 129.631 12.0565C127.908 12.0565 126.924 12.8765 126.924 13.9417C126.924 15.225 128.345 15.3615 130.013 15.5799C132.364 15.8803 135.235 16.3175 135.236 19.4034C135.236 22.1344 133.021 23.9103 129.631 23.9104C126.24 23.9104 124.107 22.1075 124.025 19.6495H126.65C126.704 20.7692 127.744 21.5612 129.631 21.5612C131.599 21.5611 132.61 20.7146 132.61 19.6495C132.61 18.3659 131.188 18.2015 129.494 17.9831C127.142 17.6827 124.298 17.2459 124.298 14.1596C124.298 11.5105 126.377 9.70813 129.603 9.70813ZM139.348 17.1088C139.348 20.0311 140.961 21.5065 143.422 21.5065C145.883 21.5065 147.496 20.0311 147.496 17.1088V10.0627H150.094V17.1088C150.094 21.5879 147.414 23.9096 143.422 23.9096C139.43 23.9096 136.75 21.6152 136.75 17.1088V10.0627H139.348V17.1088ZM45.2383 20.9878H55.2734V23.555H42.4492V5.69326H45.2383V20.9878ZM106.076 23.555H103.479V10.0627H106.076V23.555ZM167.201 9.70813C170.373 9.70813 172.78 11.6199 172.78 15.744V23.555H170.182V15.744C170.182 13.2315 168.842 12.1113 166.955 12.1112C165.124 12.1112 163.756 13.2859 163.756 15.744V23.555H161.158V15.744C161.158 13.2859 159.764 12.1112 157.932 12.1112C156.045 12.1112 154.705 13.2314 154.705 15.744V23.555H152.108V15.744C152.108 11.6199 154.515 9.70813 157.686 9.70813C159.764 9.70821 161.514 10.6368 162.443 12.3846C163.373 10.6367 165.096 9.70813 167.201 9.70813ZM104.764 4.30029C105.803 4.30029 106.57 5.0649 106.57 6.10263C106.57 7.14047 105.803 7.93309 104.764 7.93309C103.726 7.93301 102.96 7.1404 102.96 6.10263C102.96 5.06498 103.726 4.30039 104.764 4.30029Z" fill="#280F00"/>
</svg>
