<svg width="228" height="32" viewBox="0 0 228 32" fill="none" xmlns="http://www.w3.org/2000/svg">
<g clip-path="url(#clip0_657_1553)">
<mask id="mask0_657_1553" style="mask-type:luminance" maskUnits="userSpaceOnUse" x="0" y="-1" width="228" height="33">
<path d="M228 -0.5H0V31.5H228V-0.5Z" fill="white"/>
</mask>
<g mask="url(#mask0_657_1553)">
<path d="M28.1881 -0.5C36.5828 -0.5 43.3881 6.30527 43.3881 14.7V31.5C39.8534 31.5 36.9881 28.6346 36.9881 25.1V14.7C36.9881 9.83992 33.0482 5.9 28.1881 5.9H24.0271C21.9054 5.90003 19.8703 6.74271 18.3701 8.24296L7.5255 19.0883C6.92542 19.6883 6.58804 20.5022 6.58799 21.3508V21.9C6.58799 23.6673 8.02067 25.1 9.78803 25.1H24.1881C24.1881 28.5241 21.4991 31.3198 18.1178 31.4914L17.7881 31.5H9.78803C4.48606 31.5 0.187988 27.2019 0.187988 21.9V21.3508C0.188038 18.8048 1.19941 16.3628 2.99971 14.5625L13.845 3.71797C16.5456 1.01748 20.208 -0.499965 24.0271 -0.5H28.1881Z" fill="#FF500B"/>
<path d="M29.7883 9.1001C31.9974 9.1001 33.7883 10.891 33.7883 13.1001V31.5001C30.2536 31.5001 27.3883 28.6347 27.3883 25.1001V15.5001H24.7132L19.4848 20.7285C18.7347 21.4786 17.7172 21.9001 16.6563 21.9001H10.1703C9.83522 21.9001 9.66746 21.495 9.90434 21.2582L20.8914 10.2719C21.6415 9.52186 22.6587 9.1001 23.7195 9.1001H29.7883Z" fill="#FF500B"/>
<path d="M219.855 23.5379V13.2273C219.855 12.9302 219.588 12.6628 219.291 12.6628H218.905C218.667 12.6628 218.459 12.8113 218.37 13.0193L214.774 21.5174C214.27 22.7654 213.051 23.5379 211.714 23.5379C210.377 23.5379 209.188 22.7654 208.683 21.5174L205.058 13.0193C204.998 12.8113 204.79 12.6628 204.553 12.6628H204.166C203.87 12.6628 203.602 12.9302 203.602 13.2273V23.5379H200.245V13.2273C200.245 11.0582 201.998 9.27539 204.166 9.27539H204.553C206.128 9.27539 207.554 10.2262 208.178 11.7119L211.714 20.0911L215.25 11.7119C215.874 10.2262 217.3 9.27539 218.905 9.27539H219.291C221.46 9.27539 223.213 11.0582 223.213 13.2273V23.5379H219.855Z" fill="#A62F00"/>
<path d="M184.92 23.5379C181.502 23.5379 178.739 20.7745 178.739 17.3575V9.27539H182.097V17.3575C182.097 18.9026 183.374 20.1803 184.92 20.1803H192.051C193.596 20.1803 194.874 18.9026 194.874 17.3575V9.27539H198.231V17.3575C198.231 20.7745 195.468 23.5379 192.051 23.5379H184.92Z" fill="#A62F00"/>
<path d="M172.554 20.1803C173.118 20.1803 173.594 19.7048 173.594 19.1403C173.594 18.5757 173.147 18.13 172.613 18.1003H164.679C162.242 18.1003 160.282 16.1392 160.282 13.7027C160.282 11.2662 162.242 9.27539 164.679 9.27539H176.981V12.6628H164.679C164.114 12.6628 163.639 13.1382 163.639 13.7027C163.639 14.2672 164.114 14.7427 164.679 14.7427H172.672C175.049 14.8021 176.981 16.7335 176.981 19.1403C176.981 21.5768 174.99 23.5379 172.554 23.5379H160.282V20.1803H172.554Z" fill="#A62F00"/>
<path d="M141.426 23.5379V13.2273C141.426 11.0582 143.18 9.27539 145.349 9.27539H153.995C156.789 9.27539 159.046 11.5633 159.046 14.3564C159.046 17.1495 156.789 19.4375 153.995 19.4375H144.784V23.5379H141.426ZM144.784 13.2273V16.0501H153.995C154.917 16.0501 155.689 15.2775 155.689 14.3564C155.689 13.4353 154.917 12.6628 153.995 12.6628H145.349C145.052 12.6628 144.784 12.9302 144.784 13.2273Z" fill="#A62F00"/>
<path d="M135.771 9.27539H139.129V23.5379H135.771V9.27539Z" fill="#A62F00"/>
<path d="M126.876 20.1803C128.956 20.1803 130.65 18.4866 130.65 16.4067C130.65 14.3564 128.956 12.6628 126.876 12.6628H121.646C119.566 12.6628 117.873 14.3564 117.873 16.4067C117.873 18.4866 119.566 20.1803 121.646 20.1803H126.876ZM126.876 9.27539C130.828 9.27539 134.007 12.4844 134.007 16.4067C134.007 20.3586 130.828 23.5379 126.876 23.5379H121.646C117.694 23.5379 114.515 20.3586 114.515 16.4067C114.515 12.4844 117.694 9.27539 121.646 9.27539H126.876Z" fill="#A62F00"/>
<path d="M101.45 23.5379C97.498 23.5379 94.3188 20.3586 94.3188 16.4067C94.3188 12.4844 97.498 9.27539 101.45 9.27539H111.761V12.6628H101.45C99.37 12.6628 97.6765 14.3564 97.6765 16.4067C97.6765 18.4866 99.37 20.1803 101.45 20.1803H109.027C109.592 20.1803 110.067 19.7048 110.067 19.1403C110.067 18.5757 109.592 18.1003 109.027 18.1003H100.886V14.7427H109.027C111.464 14.7427 113.454 16.7038 113.454 19.1403C113.454 21.5768 111.464 23.5379 109.027 23.5379H101.45Z" fill="#A62F00"/>
<path d="M86.0775 20.1803C88.1575 20.1803 89.8511 18.4866 89.8511 16.4067C89.8511 14.3564 88.1575 12.6628 86.0775 12.6628H80.8479C78.7682 12.6628 77.0745 14.3564 77.0745 16.4067C77.0745 18.4866 78.7682 20.1803 80.8479 20.1803H86.0775ZM86.0775 9.27539C90.0295 9.27539 93.2087 12.4844 93.2087 16.4067C93.2087 20.3586 90.0295 23.5379 86.0775 23.5379H80.8479C76.8962 23.5379 73.7168 20.3586 73.7168 16.4067C73.7168 12.4844 76.8962 9.27539 80.8479 9.27539H86.0775Z" fill="#A62F00"/>
<path d="M59.9671 19.616C59.9671 19.9131 60.2344 20.1806 60.5316 20.1806H73.1004V23.5382H60.5316C58.3625 23.5382 56.6094 21.7851 56.6094 19.616V9.18652H59.9671V19.616Z" fill="#A62F00"/>
<path d="M227.302 9.18653C227.302 10.1387 226.53 10.9106 225.578 10.9106C224.625 10.9106 223.854 10.1387 223.854 9.18653C223.854 8.23437 224.625 7.4624 225.578 7.4624C226.53 7.4624 227.302 8.23437 227.302 9.18653Z" fill="#A62F00"/>
</g>
</g>
<defs>
<clipPath id="clip0_657_1553">
<rect width="228" height="32" fill="white"/>
</clipPath>
</defs>
</svg>
