<svg width="226" height="32" viewBox="0 0 226 32" fill="none" xmlns="http://www.w3.org/2000/svg">
<path d="M34.461 0C40.2149 5.15422e-07 44.8794 4.65624 44.8794 10.4C44.8794 16.1438 40.2149 20.8 34.461 20.8H27.6364L38.8563 32H25.2572L12.6286 19.3938C11.7584 18.5251 11.2199 17.3255 11.2199 16C11.2199 13.349 13.3727 11.2 16.0284 11.2H34.461C34.9036 11.2 35.2624 10.8418 35.2624 10.4C35.2624 9.95816 34.9036 9.6 34.461 9.6H16.0284C12.4875 9.6 9.61702 12.4654 9.61702 16C9.61702 17.9121 10.4571 19.6278 11.7889 20.8H11.7708L22.9907 32H16.0284C7.17615 32 0 24.8366 0 16C0 7.16345 7.17614 0 16.0284 0H34.461Z" fill="#3902FF"/>
<path d="M44.8796 22.3999V31.9999H41.123L31.5059 22.3999H44.8796Z" fill="#3902FF"/>
<path d="M218.493 6.64355L218.613 6.68412C220.17 6.72469 221.528 7.82003 221.927 9.32103L221.967 9.48327L226 26.1161H220.65L218.254 16.2176L216.377 22.2622C215.818 23.9255 214.301 25.102 212.544 25.102C210.868 25.102 209.35 24.0066 208.791 22.4245L208.711 22.2622L206.835 16.2176L204.439 26.1161H199.128L203.121 9.48327L203.161 9.32103C203.6 7.73889 204.998 6.64355 206.635 6.64355L206.755 6.68412C208.232 6.72469 209.51 7.69832 210.029 9.07759L210.069 9.19935L212.544 17.1101L215.02 9.19935L215.06 9.07759C215.579 7.61718 216.936 6.64355 218.493 6.64355Z" fill="#130058"/>
<path d="M189.317 26.1161C184.006 26.1161 179.734 21.7754 179.734 16.3798V6.64355H184.885V16.3798C184.885 18.8545 186.881 20.8829 189.317 20.8829C191.712 20.8829 193.708 18.8545 193.708 16.3798V6.64355H198.899V16.3798C198.899 21.7754 194.588 26.1161 189.317 26.1161Z" fill="#130058"/>
<path d="M178.796 6.64355V11.9173C176.56 11.9173 174.603 13.4184 173.965 15.609L173.046 18.6922C171.768 23.1141 167.775 26.1161 163.263 26.1161V20.8829C165.46 20.8829 167.456 19.3819 168.095 17.1912L168.974 14.1081C170.251 9.68615 174.244 6.64355 178.796 6.64355Z" fill="#130058"/>
<path d="M158.09 15.0817C158.929 15.0817 159.647 14.3921 159.647 13.4995C159.647 12.6476 158.929 11.9173 158.09 11.9173H152.381V15.0817H158.09ZM158.09 6.64355C161.804 6.64355 164.838 9.72671 164.838 13.4995C164.838 17.2724 161.804 20.3555 158.09 20.3555H152.381V26.1161H147.23V11.39C147.23 8.79367 149.307 6.64355 151.862 6.64355H158.09Z" fill="#130058"/>
<path d="M139.556 6.64355H144.707V26.1161H139.556V6.64355Z" fill="#130058"/>
<path d="M127.941 11.6738H126.903C124.307 11.6738 122.231 13.7833 122.231 16.3796C122.231 19.0166 124.307 21.1261 126.903 21.1261H127.941C130.536 21.1261 132.612 19.0166 132.612 16.3796C132.612 13.7833 130.536 11.6738 127.941 11.6738ZM126.903 6.3999H127.941C133.371 6.3999 137.763 10.8624 137.763 16.3796C137.763 21.9374 133.371 26.3999 127.941 26.3999H126.903C121.473 26.3999 117.08 21.9374 117.08 16.3796C117.08 10.8624 121.473 6.3999 126.903 6.3999Z" fill="#130058"/>
<path d="M114.892 11.9173H104.83C102.395 11.9173 100.399 13.9457 100.399 16.3798C100.399 18.8545 102.395 20.8829 104.83 20.8829H109.822C110.341 20.8017 110.78 20.3555 110.78 19.7876V19.3008H102.994V14.0269H111.658C114.054 14.0269 115.931 15.9741 115.931 18.3677V19.7876C115.931 23.2358 113.256 26.035 109.862 26.1161H104.83C99.5204 26.1161 95.248 21.7754 95.248 16.3798C95.248 11.0249 99.5204 6.64355 104.83 6.64355H114.892V11.9173Z" fill="#130058"/>
<path d="M84.5122 11.6738H83.4736C80.8786 11.6738 78.8021 13.7833 78.8021 16.3796C78.8021 19.0166 80.8786 21.1261 83.4736 21.1261H84.5122C87.1072 21.1261 89.1837 19.0166 89.1837 16.3796C89.1837 13.7833 87.1072 11.6738 84.5122 11.6738ZM83.4736 6.3999H84.5122C89.9418 6.3999 94.3344 10.8624 94.3344 16.3796C94.3344 21.9374 89.9418 26.3999 84.5122 26.3999H83.4736C78.0435 26.3999 73.6514 21.9374 73.6514 16.3796C73.6514 10.8624 78.0435 6.3999 83.4736 6.3999Z" fill="#130058"/>
<path d="M56.9009 18.246V6.64355H62.0516V18.246C62.0516 19.7065 63.2095 20.8829 64.6469 20.8829H72.4329V26.1161H64.6469C60.3746 26.1161 56.9009 22.5868 56.9009 18.246Z" fill="#130058"/>
</svg>
