<svg width="90" height="32" viewBox="0 0 90 32" fill="none" xmlns="http://www.w3.org/2000/svg">
<g clip-path="url(#clip0_657_1588)">
<mask id="mask0_657_1588" style="mask-type:luminance" maskUnits="userSpaceOnUse" x="0" y="0" width="229" height="32">
<path d="M229 0H0V32H229V0Z" fill="white"/>
</mask>
<g mask="url(#mask0_657_1588)">
<path fill-rule="evenodd" clip-rule="evenodd" d="M84.5771 6.65723C87.1969 6.65723 88.8792 8.72953 88.3347 11.2857L86.5812 19.5144H83.4192L82.7619 22.6001H70.6406C68.062 22.6001 66.3918 20.5921 66.8597 18.091L66.8837 17.9715L68.6368 9.74297H71.7989L72.4562 6.65723H84.5771ZM70.0457 17.9715L70.0308 18.0509C69.8995 18.8661 70.4521 19.5144 71.298 19.5144H83.4192L85.172 11.2857C85.3537 10.4337 84.7932 9.74297 83.9197 9.74297H71.7989L70.0457 17.9715Z" fill="#002767"/>
<path d="M92.2999 16.1717C92.119 17.0237 92.6795 17.7145 93.5522 17.7145H100.931L100.273 20.8002H92.8948C90.2758 20.8002 88.5935 18.7279 89.138 16.1717L90.4527 10.0002H93.6147L94.2721 6.91455H104.812C107.432 6.91455 109.114 8.98682 108.569 11.5431L106.049 23.3717C105.505 25.9279 102.94 28.0002 100.32 28.0002H90.1749L90.833 24.9145H100.978C101.851 24.9145 102.706 24.2237 102.887 23.3717L105.407 11.5431C105.589 10.691 105.029 10.0002 104.155 10.0002H93.6147L92.2999 16.1717Z" fill="#002767"/>
<path d="M52.1072 17.9715L54.5178 6.65723H51.3557L48.9452 17.9715C48.4005 20.5277 50.0826 22.6001 52.702 22.6001H64.0531L64.7105 19.5144H53.3595C52.4863 19.5144 51.9257 18.8236 52.1072 17.9715Z" fill="#002767"/>
<path fill-rule="evenodd" clip-rule="evenodd" d="M13.6119 0C14.0541 0 14.4126 0.358172 14.4126 0.8V6.71718C14.4126 6.89534 14.6282 6.98456 14.7543 6.85859L21.1498 0.46875C21.45 0.168749 21.8573 6.3835e-05 22.2819 0H29.2943C29.5067 3.23215e-05 29.7104 0.0843744 29.8605 0.234375L32.2626 2.63438C32.5752 2.94678 32.5752 3.45322 32.2626 3.76562L29.1669 6.85859C29.0408 6.98458 29.1301 7.19998 29.3084 7.2H35.6999C35.9122 7.20003 36.1159 7.28438 36.2661 7.43438L38.6682 9.8344C38.9808 10.1468 38.9808 10.6532 38.6682 10.9656L35.5138 14.1172C35.3575 14.2734 35.3575 14.5266 35.5138 14.6828L38.102 17.2687C38.827 17.9931 39.2343 18.9756 39.2343 20C39.2343 21.0244 38.827 22.0069 38.102 22.7313L29.2943 31.5313C28.994 31.8313 28.5867 31.9999 28.1621 32H25.6224C25.1802 32 24.8217 31.6418 24.8217 31.2V25.2828C24.8217 25.1046 24.6061 25.0154 24.4799 25.1414L18.0845 31.5313C17.7843 31.8313 17.3769 31.9999 16.9523 32H9.93996C9.72762 32 9.52392 31.9156 9.37379 31.7656L6.97171 29.3656C6.6591 29.0532 6.6591 28.5468 6.97171 28.2344L10.0674 25.1414C10.1935 25.0154 10.1042 24.8 9.92587 24.8H3.53434C3.32202 24.8 3.11835 24.7156 2.96822 24.5656L0.566119 22.1656C0.253506 21.8532 0.253507 21.3468 0.566119 21.0344L3.72043 17.8828C3.87675 17.7266 3.87675 17.4734 3.72043 17.3172L1.13224 14.7313C0.407277 14.0069 0 13.0244 0 12C0 10.9756 0.407277 9.99312 1.13224 9.26872L9.93996 0.46875C10.2402 0.168749 10.6475 6.4037e-05 11.0722 0H13.6119ZM16.0711 7.2C15.0093 7.2 13.9905 7.62173 13.2397 8.37184L4.68691 16.9172C4.43476 17.1692 4.61335 17.5999 4.96996 17.6H16.6489C17.0055 17.6001 17.184 18.0309 16.932 18.2828L11.0925 24.1172C10.8403 24.3692 11.0189 24.7999 11.3755 24.8H23.1632C24.225 24.8 25.2438 24.3782 25.9945 23.6282L34.5474 15.0828C34.7837 14.8466 34.6416 14.453 34.3292 14.4047L34.2643 14.4H22.5853C22.2287 14.4 22.0501 13.9692 22.3023 13.7172L28.1418 7.88282C28.3939 7.63084 28.2154 7.20005 27.8587 7.2H16.0711Z" fill="#297AFF"/>
</g>
</g>
<defs>
<clipPath id="clip0_657_1588">
<rect width="229" height="32" fill="white"/>
</clipPath>
</defs>
</svg>
