<svg width="40" height="40" viewBox="0 0 40 40" fill="none" xmlns="http://www.w3.org/2000/svg">
<rect width="40" height="40" rx="6" fill="#FF6500" fill-opacity="0.1"/>
<path d="M20.0004 24C22.2095 24 24.0004 22.2091 24.0004 20C24.0004 17.7909 22.2095 16 20.0004 16C17.7912 16 16.0004 17.7909 16.0004 20C16.0004 22.2091 17.7912 24 20.0004 24ZM29.0049 12.0029H11.0049C10.4526 12.0029 10.0049 12.4506 10.0049 13.0029V27.0029C10.0049 27.5552 10.4526 28.0029 11.0049 28.0029H29.0049C29.5572 28.0029 30.0049 27.5552 30.0049 27.0029V13.0029C30.0049 12.4506 29.5572 12.0029 29.0049 12.0029ZM12.0049 23.6463V16.3537C13.1307 16.017 14.0184 15.1289 14.3546 14.0029H25.6462C25.9833 15.1319 26.8748 16.0217 28.0049 16.3564V23.6436C26.8729 23.9788 25.9802 24.8711 25.6444 26.0029H14.3563C14.0214 24.8742 13.1326 23.9836 12.0049 23.6463Z" fill="#FF6500"/>
</svg>
